<svg id="logo" xmlns="http://www.w3.org/2000/svg" xmlns:xlink="http://www.w3.org/1999/xlink" viewBox="0 0 470 118.1">
  <style>
    .st0 {
      clip-path: url(#SVGID_2_);
    }
    .st1 {
      clip-path: url(#SVGID_4_);
      fill: #e98300;
    }
    .st2 {
      clip-path:url(#SVGID_6_);
      fill: #e98300;
    }
  </style>
  <g id="logo_-_horizontal">
    <defs>
      <path id="SVGID_1_" d="M3.9 3h458.6v111.5H3.9z"/>
    </defs>
    <clipPath id="SVGID_2_">
      <use xlink:href="#SVGID_1_" overflow="visible"/>
    </clipPath>
    <g class="st0">
      <defs>
        <path id="SVGID_3_" d="M3.9 3h111.5v111.5H3.9z"/>
      </defs>
      <clipPath id="SVGID_4_">
        <use xlink:href="#SVGID_3_" overflow="visible"/>
      </clipPath>
      <path class="st1" d="M81.2 41.5c-1.2 0-2.1.9-2.1 2.1 0 1.2.9 2.1 2.1 2.1 1.2 0 2.1-.9 2.1-2.1 0-1.1-1-2.1-2.1-2.1"/>
      <path class="st1" d="M59.7 3C28.9 3 3.9 28 3.9 58.7s25 55.8 55.8 55.8c30.8 0 55.7-25 55.7-55.8S90.5 3 59.7 3m15.8 48v-.2-.1c0-.4.5-.7 1.3-1v-2.5-.1c0-.2.2-.4.6-.6v-5.6-.1c0-.5 1.6-1 3.7-1 2 0 3.7.4 3.7 1V46.5c.4.2.6.4.6.6v2.6c.8.3 1.3.6 1.3 1v5.8H75.5V51zm-43-11.3h11.4c1.3 0 2.4 1.1 2.4 2.4 0 1.3-1.1 2.4-2.4 2.4v3.3c0 .8-.4 1.6-1 2.1v4.4H46c.4 0 .7.3.7.7v4.8H32.6V55c0-.4.3-.7.7-.7h4.1V50c-.7-.5-1.1-1.3-1.1-2.2v-3-.3h-3.9c-1.3 0-2.4-1.1-2.4-2.4.1-1.3 1.2-2.4 2.5-2.4m19 50.3v.5c0 1.9-1.5 3.4-3.4 3.4h-17c-1.9 0-3.4-1.5-3.4-3.4v-3.6c0-6-1-19.1 4.7-24.2h14.3c7.7 6.7 4.8 27.3 4.8 27.3m16.6.5H54.3v-.3c.4-2.9 2.4-20.8-4.7-28.7V55c0-1.9-1.5-3.4-3.4-3.4h-.4v-.7c.6-.9 1-2 1-3.1v-1.4c1.4-.9 2.4-2.5 2.4-4.3 0-2-1.1-3.7-2.8-4.6 1.6-2 3.8-3.5 6.4-4.2V21.2c0-.8.6-1.4 1.4-1.4h11.4c.8 0 1.4.6 1.4 1.4v1.1h-9.5c-.8 0-1.4.6-1.4 1.4 0 .8.6 1.4 1.4 1.4H67V27h-9.5c-.8 0-1.4.6-1.4 1.4 0 .8.6 1.4 1.4 1.4H67v3.5c3.6 1 6.5 3.6 7.9 7l.1-.1v5c-.4.5-.5 1.1-.6 1.5 0 .2-.1.4-.1.6v.9c-.9.7-1.2 1.6-1.3 2.2 0 .2-.1.4-.1.6v5.5h-4.7v34zm23.5-13.9v15.7c0 .9-.7 1.7-1.7 1.7H72.5c-.9 0-1.7-.7-1.7-1.7V59.1h20.7v17.5z"/>
    </g>
    <g class="st0">
      <defs>
        <path id="SVGID_5_" d="M3.9 3h458.6v111.5H3.9z"/>
      </defs>
      <clipPath id="SVGID_6_">
        <use xlink:href="#SVGID_5_" overflow="visible"/>
      </clipPath>
      <path class="st2" d="M154.3 98.7c-.5-1.3-.9-2.5-1.4-3.7-.4-1.2-.8-2.3-1.2-3.4h-12.6c-.4 1.1-.9 2.3-1.3 3.4-.4 1.2-.8 2.4-1.3 3.6h-2.6c1-2.7 1.9-5.2 2.8-7.5.9-2.3 1.7-4.5 2.6-6.6.8-2.1 1.7-4.1 2.5-6 .8-1.9 1.7-3.8 2.6-5.7h2.2c.9 1.9 1.8 3.8 2.6 5.7.8 1.9 1.6 3.9 2.5 6s1.7 4.3 2.6 6.6c.9 2.3 1.8 4.8 2.9 7.5h-2.9zm-8.9-22.9c-.9 2.1-1.8 4.3-2.7 6.5-.9 2.2-1.8 4.6-2.7 7.1h11c-1-2.6-1.9-4.9-2.8-7.2-1-2.1-1.9-4.3-2.8-6.4M178.3 98.7c-.5-.9-1.1-1.9-1.8-3.1-.7-1.2-1.5-2.4-2.4-3.7-.9-1.3-1.8-2.7-2.8-4.1-1-1.4-1.9-2.8-2.9-4.1-1-1.3-1.9-2.6-2.8-3.7-.9-1.2-1.7-2.2-2.4-3v21.7h-2.5V72.9h2c1.3 1.4 2.6 3 4.1 4.9 1.4 1.9 2.9 3.7 4.3 5.7 1.4 1.9 2.7 3.8 3.9 5.6 1.2 1.8 2.2 3.4 3 4.8v-21h2.5v25.8h-2.2zM207.6 85.8c0 2.2-.3 4.1-1 5.8-.7 1.6-1.7 3-2.9 4.1-1.3 1.1-2.7 1.9-4.5 2.5-1.7.5-3.6.8-5.7.8-1 0-2.1-.1-3.3-.2-1.1-.1-2.1-.3-3-.5V73.4c.9-.2 1.9-.4 3-.5 1.1-.1 2.2-.2 3.3-.2 2.1 0 4 .3 5.7.8 1.7.5 3.2 1.4 4.5 2.5 1.3 1.1 2.2 2.5 2.9 4.1.7 1.6 1 3.5 1 5.7m-17.9 10.7c.1 0 .5.1 1.1.1.6.1 1.6.1 2.9.1 1.9 0 3.5-.3 4.9-.8 1.4-.5 2.6-1.2 3.5-2.2.9-.9 1.7-2.1 2.1-3.4.5-1.4.7-2.9.7-4.6 0-1.7-.2-3.2-.7-4.5-.5-1.3-1.2-2.5-2.1-3.4-.9-.9-2.1-1.7-3.5-2.2-1.4-.5-3-.8-4.9-.8-1.3 0-2.3 0-2.9.1-.6.1-1 .1-1.1.1v21.5zM153.7 61.2c-3.1 0-5.9-.5-8.3-1.4-2.5-1-4.5-2.3-6.2-4.2-1.7-1.8-3-4.1-3.9-6.7-.9-2.7-1.4-5.7-1.4-9.1 0-3.4.5-6.5 1.6-9.1 1-2.7 2.5-4.9 4.3-6.7 1.8-1.8 4-3.2 6.4-4.2 2.5-1 5.1-1.4 7.9-1.4 1.7 0 3.2.1 4.6.4 1.4.3 2.6.5 3.6.9 1 .3 1.9.7 2.6 1 .7.4 1.1.6 1.4.8l-2.2 6.1c-1-.6-2.3-1.2-4.1-1.7-1.8-.5-3.7-.8-5.7-.8-1.8 0-3.4.3-5 .9-1.5.6-2.9 1.5-4 2.8-1.1 1.2-2 2.8-2.6 4.6-.6 1.9-1 4-1 6.5 0 2.2.2 4.2.7 6 .5 1.8 1.3 3.4 2.3 4.7 1 1.3 2.3 2.4 3.9 3.1 1.6.7 3.5 1.1 5.7 1.1 2.7 0 4.8-.3 6.5-.8 1.7-.5 2.9-1 3.9-1.5l2 6.1c-.5.3-1.1.6-1.9.9-.8.3-1.8.6-2.9.9-1.1.3-2.4.5-3.7.7-1.5 0-2.9.1-4.5.1M210.5 39.7c0 3.5-.5 6.6-1.6 9.3-1.1 2.7-2.5 4.9-4.3 6.7-1.8 1.8-3.9 3.2-6.3 4.1-2.4.9-5 1.4-7.7 1.4s-5.3-.5-7.8-1.4c-2.4-.9-4.6-2.3-6.4-4.1-1.8-1.8-3.2-4-4.3-6.7-1.1-2.7-1.6-5.8-1.6-9.3 0-3.5.5-6.6 1.6-9.3s2.5-4.9 4.4-6.7c1.8-1.8 4-3.2 6.4-4.1 2.4-.9 5-1.4 7.7-1.4s5.2.5 7.7 1.4c2.4.9 4.5 2.3 6.3 4.1 1.8 1.8 3.2 4.1 4.3 6.7 1 2.7 1.6 5.8 1.6 9.3m-32.2 0c0 2.3.3 4.3.8 6.1.6 1.8 1.4 3.4 2.4 4.7 1 1.3 2.3 2.3 3.8 3 1.5.7 3.2 1.1 5.1 1.1 1.9 0 3.5-.4 5-1.1 1.5-.7 2.8-1.7 3.8-3s1.9-2.9 2.4-4.7c.6-1.8.8-3.9.8-6.1 0-2.3-.3-4.3-.8-6.1-.6-1.8-1.4-3.4-2.4-4.7-1-1.3-2.3-2.3-3.8-3-1.5-.7-3.2-1.1-5-1.1-1.9 0-3.6.4-5.1 1.1-1.5.7-2.8 1.7-3.8 3s-1.9 2.9-2.4 4.7c-.5 1.8-.8 3.8-.8 6.1M246.4 60.3c-1.3-2.3-2.9-4.7-4.5-7.3-1.7-2.6-3.4-5.2-5.2-7.8-1.8-2.6-3.6-5.2-5.4-7.7-1.8-2.5-3.6-4.7-5.3-6.7v29.5h-7.4V19.2h6.1c1.6 1.7 3.3 3.6 5.1 5.9 1.8 2.3 3.7 4.6 5.5 7.1 1.8 2.5 3.6 4.9 5.3 7.4 1.7 2.5 3.3 4.8 4.6 6.9V19.2h7.4v41.2h-6.2zM291.3 19.2v6.4h-12.6v34.7h-7.6V25.6h-12.6v-6.4zM321 60.3c-.6-1.6-1.1-3.2-1.7-4.8-.6-1.6-1.2-3.2-1.7-4.9h-17.4c-.6 1.7-1.1 3.3-1.7 4.9-.6 1.6-1.1 3.2-1.7 4.8H289c1.5-4.4 3-8.5 4.4-12.2 1.4-3.7 2.7-7.2 4.1-10.6 1.3-3.3 2.6-6.5 3.9-9.5 1.3-3 2.7-6 4-8.9h7.1c1.4 2.9 2.7 5.9 4 8.9 1.3 3 2.6 6.2 4 9.5 1.3 3.3 2.7 6.9 4.1 10.6 1.4 3.7 2.9 7.8 4.4 12.2h-8zm-12.1-33.2c-.9 2.1-2 4.7-3.1 7.7-1.2 3-2.4 6.3-3.7 9.8h13.5c-1.3-3.5-2.5-6.8-3.7-9.9-1.1-3-2.2-5.6-3-7.6M334.3 19.2h7.5v41.2h-7.5zM379.3 60.3c-1.3-2.3-2.9-4.7-4.5-7.3-1.7-2.6-3.4-5.2-5.2-7.8-1.8-2.6-3.6-5.2-5.4-7.7-1.8-2.5-3.6-4.7-5.3-6.7v29.5h-7.4V19.2h6.1c1.6 1.7 3.3 3.6 5.1 5.9 1.8 2.3 3.7 4.6 5.5 7.1 1.8 2.5 3.6 4.9 5.3 7.4 1.7 2.5 3.3 4.8 4.6 6.9V19.2h7.4v41.2h-6.2zM395.6 60.3V19.2H422v6.3h-19v10.2h16.9v6.2H403V54h20.4v6.3zM441.7 18.7c5.9 0 10.5 1.1 13.6 3.3 3.1 2.2 4.7 5.5 4.7 10 0 5.6-2.8 9.4-8.3 11.3.8.9 1.6 2 2.6 3.3 1 1.3 1.9 2.7 2.9 4.2s1.9 3.1 2.9 4.7c.9 1.6 1.7 3.2 2.4 4.7h-8.4c-.8-1.4-1.6-2.9-2.4-4.3-.9-1.4-1.8-2.9-2.6-4.2-.9-1.4-1.8-2.7-2.6-3.9-.9-1.2-1.7-2.3-2.4-3.2-.6 0-1 .1-1.4.1H438v15.6h-7.5V19.7c1.8-.4 3.8-.7 5.8-.8 1.9-.1 3.8-.2 5.4-.2m.5 6.5c-1.6 0-3 .1-4.4.2v13.3h3.3c1.8 0 3.4-.1 4.8-.3 1.4-.2 2.5-.6 3.5-1.1.9-.5 1.6-1.2 2.1-2.1.5-.9.7-2 .7-3.3 0-1.3-.2-2.3-.7-3.2-.5-.9-1.2-1.6-2-2.1-.9-.5-2-.9-3.2-1.1-1.2-.2-2.6-.3-4.1-.3M224.7 69.7c4.5 0 8 .8 10.4 2.5 2.4 1.6 3.6 4.2 3.6 7.7 0 1.8-.3 3.4-1 4.7-.6 1.3-1.6 2.4-2.8 3.2-1.2.8-2.7 1.4-4.5 1.8-1.8.4-3.8.6-6.1.6h-2.8v11h-5.7V70.4c1.3-.3 2.8-.5 4.4-.6 1.7-.1 3.2-.1 4.5-.1m.4 4.9c-1.4 0-2.6 0-3.6.1v10.6h2.7c2.7 0 4.8-.4 6.3-1.1 1.5-.8 2.2-2.2 2.2-4.3 0-1-.2-1.9-.6-2.6-.4-.7-.9-1.2-1.6-1.6-.7-.4-1.5-.7-2.5-.8-.8-.2-1.8-.3-2.9-.3M262.6 101.2c-.4-1.2-.9-2.4-1.3-3.6-.5-1.2-.9-2.4-1.3-3.7h-13.2c-.4 1.3-.8 2.5-1.3 3.7-.4 1.2-.9 2.4-1.3 3.6h-5.9c1.2-3.3 2.3-6.4 3.3-9.2 1-2.8 2.1-5.5 3.1-8s2-4.9 3-7.2 2-4.5 3.1-6.7h5.4c1.1 2.2 2.1 4.5 3.1 6.7 1 2.3 2 4.7 3 7.2s2 5.2 3.1 8 2.2 5.9 3.4 9.2h-6.2zM253.4 76c-.7 1.6-1.5 3.5-2.4 5.8-.9 2.3-1.8 4.8-2.8 7.4h10.3c-1-2.7-1.9-5.2-2.8-7.5-.8-2.2-1.6-4.2-2.3-5.7M285.8 101.8c-2.3 0-4.4-.4-6.3-1.1-1.9-.7-3.4-1.8-4.7-3.2-1.3-1.4-2.3-3.1-3-5.1-.7-2-1-4.3-1-6.9 0-2.6.4-4.9 1.2-6.9.8-2 1.9-3.7 3.3-5.1 1.4-1.4 3-2.5 4.9-3.2 1.9-.7 3.9-1.1 6-1.1 1.3 0 2.5.1 3.5.3 1 .2 2 .4 2.7.7.8.2 1.4.5 1.9.8.5.3.9.5 1.1.6l-1.7 4.6c-.7-.4-1.7-.9-3.1-1.3-1.3-.4-2.8-.6-4.3-.6-1.3 0-2.6.2-3.8.7-1.2.5-2.2 1.2-3 2.1-.9.9-1.5 2.1-2 3.5s-.7 3-.7 4.9c0 1.6.2 3.2.6 4.5.4 1.4 1 2.6 1.7 3.6.8 1 1.8 1.8 3 2.3 1.2.6 2.6.8 4.3.8 2 0 3.6-.2 4.9-.6 1.3-.4 2.2-.8 2.9-1.1l1.5 4.6c-.4.2-.8.5-1.5.7-.6.2-1.3.5-2.2.7-.8.2-1.8.4-2.8.5-1.1.3-2.2.3-3.4.3M319.2 101.2c-.8-1.2-1.7-2.5-2.7-3.8-1-1.3-2.1-2.6-3.2-3.8-1.1-1.2-2.3-2.4-3.5-3.5-1.2-1.1-2.4-2.1-3.6-2.9v14h-5.7V70h5.7v12.9c1-1 2-2 3.1-3.2 1.1-1.1 2.2-2.3 3.2-3.4 1.1-1.2 2.1-2.3 3-3.4 1-1.1 1.8-2.1 2.6-2.9h6.8c-1 1.1-2 2.3-3.1 3.6-1.1 1.2-2.2 2.5-3.4 3.7-1.2 1.2-2.3 2.5-3.5 3.7-1.2 1.2-2.3 2.4-3.5 3.5 1.3 1 2.5 2.1 3.8 3.4 1.3 1.3 2.6 2.6 3.8 4.1 1.3 1.5 2.5 3 3.6 4.5 1.2 1.6 2.2 3.1 3.2 4.7h-6.6zM352 101.2c-.4-1.2-.9-2.4-1.3-3.6-.5-1.2-.9-2.4-1.3-3.7h-13.2c-.4 1.3-.8 2.5-1.3 3.7-.4 1.2-.9 2.4-1.3 3.6h-5.9c1.2-3.3 2.3-6.4 3.3-9.2 1-2.8 2.1-5.5 3.1-8s2-4.9 3-7.2 2-4.5 3.1-6.7h5.4c1 2.2 2.1 4.5 3.1 6.7 1 2.3 2 4.7 3 7.2s2 5.2 3.1 8 2.2 5.9 3.4 9.2H352zM342.8 76c-.7 1.6-1.5 3.5-2.4 5.8-.9 2.3-1.8 4.8-2.8 7.4h10.3c-1-2.7-1.9-5.2-2.8-7.5-.9-2.2-1.7-4.2-2.3-5.7M375.8 74.3c-3.2 0-5.7 1-7.4 3-1.7 2-2.5 4.8-2.5 8.3 0 1.7.2 3.2.6 4.6.4 1.4 1 2.6 1.8 3.6s1.8 1.8 3 2.3c1.2.6 2.6.8 4.2.8 1 0 1.8 0 2.6-.1.7-.1 1.3-.2 1.7-.3V85.3h5.7v15c-.8.3-2.1.6-4 1s-4 .5-6.4.5c-2.2 0-4.3-.4-6.2-1.1-1.9-.7-3.4-1.8-4.7-3.1-1.3-1.4-2.3-3.1-3-5.1-.7-2-1.1-4.3-1.1-6.9 0-2.6.4-4.9 1.2-6.9.8-2 1.9-3.7 3.3-5.1 1.4-1.4 3-2.5 4.9-3.2 1.9-.7 3.8-1.1 5.9-1.1 1.4 0 2.7.1 3.8.3 1.1.2 2.1.4 2.9.7.8.2 1.5.5 2 .8.5.3.9.5 1.1.6l-1.7 4.6c-.9-.5-2-1-3.4-1.4-1.4-.5-2.8-.6-4.3-.6M392 70h5.7v31.2H392zM426.1 101.2c-1-1.7-2.2-3.5-3.4-5.5-1.3-2-2.6-3.9-3.9-5.9-1.4-2-2.7-3.9-4.1-5.8-1.4-1.9-2.7-3.6-4-5.1v22.3h-5.6V70h4.6c1.2 1.3 2.5 2.8 3.9 4.5 1.4 1.7 2.8 3.5 4.2 5.4 1.4 1.9 2.7 3.7 4 5.6 1.3 1.9 2.5 3.6 3.5 5.2V70h5.6v31.2h-4.8zM453 74.3c-3.2 0-5.7 1-7.4 3-1.7 2-2.5 4.8-2.5 8.3 0 1.7.2 3.2.6 4.6.4 1.4 1 2.6 1.8 3.6s1.8 1.8 3 2.3c1.2.6 2.6.8 4.2.8 1 0 1.8 0 2.6-.1.7-.1 1.3-.2 1.7-.3V85.3h5.7v15c-.8.3-2.1.6-4 1s-4 .5-6.4.5c-2.2 0-4.3-.4-6.2-1.1-1.9-.7-3.4-1.8-4.7-3.1-1.3-1.4-2.3-3.1-3-5.1-.7-2-1.1-4.3-1.1-6.9 0-2.6.4-4.9 1.2-6.9.8-2 1.9-3.7 3.3-5.1 1.4-1.4 3-2.5 4.9-3.2 1.9-.7 3.8-1.1 5.9-1.1 1.4 0 2.7.1 3.8.3 1.1.2 2.1.4 2.9.7.8.2 1.5.5 2 .8.5.3.9.5 1.1.6l-1.7 4.6c-.9-.5-2-1-3.4-1.4-1.5-.5-2.9-.6-4.3-.6"/>
    </g>
  </g>
</svg>
